<?xml version="1.0" standalone="no"?>
<!DOCTYPE svg PUBLIC "-//W3C//DTD SVG 20010904//EN"
 "http://www.w3.org/TR/2001/REC-SVG-20010904/DTD/svg10.dtd">
<svg version="1.0" xmlns="http://www.w3.org/2000/svg"
 width="1024.000000pt" height="1024.000000pt" viewBox="0 0 1024.000000 1024.000000"
 preserveAspectRatio="xMidYMid meet">

<g transform="translate(0.000000,1024.000000) scale(0.100000,-0.100000)"
fill="#000000" stroke="none">
<path d="M2780 7340 c-228 -31 -469 -129 -666 -271 -137 -98 -310 -276 -393
-403 -111 -171 -202 -392 -232 -560 l-10 -61 -62 -30 c-124 -60 -226 -185
-262 -320 -19 -74 -20 -261 -1 -330 44 -165 155 -291 307 -346 l56 -21 7 -53
c15 -129 106 -350 211 -510 78 -119 259 -300 384 -384 177 -118 341 -185 484
-197 70 -7 73 -8 114 -54 24 -27 63 -58 88 -70 40 -20 57 -21 197 -18 148 3
154 4 193 30 22 15 51 44 65 65 21 31 25 48 25 114 0 70 -3 81 -31 121 -19 26
-53 54 -84 71 -48 25 -61 27 -169 27 -64 0 -134 -5 -156 -11 -49 -13 -102 -53
-118 -86 -11 -24 -15 -25 -67 -19 -96 10 -172 34 -285 91 -140 70 -217 125
-331 239 -98 98 -175 204 -234 325 -45 91 -88 222 -96 294 -5 50 -4 53 23 68
16 9 38 33 49 55 18 36 19 67 22 428 3 380 2 389 -19 433 -13 26 -32 49 -48
56 -14 6 -28 12 -29 13 -16 10 50 224 104 340 80 172 252 378 419 502 204 152
512 252 774 252 430 0 838 -199 1087 -529 105 -139 201 -352 238 -526 5 -26 2
-32 -23 -47 -67 -37 -66 -31 -69 -468 -3 -444 -1 -457 65 -507 29 -23 49 -28
106 -31 196 -12 371 93 459 276 39 81 41 90 46 201 5 130 -8 201 -55 299 -39
80 -144 184 -223 221 l-63 30 -27 108 c-107 423 -308 709 -665 948 -158 105
-320 175 -515 222 -91 22 -133 25 -315 28 -115 2 -239 0 -275 -5z"/>
<path d="M2475 6566 c-173 -39 -288 -123 -363 -264 -61 -114 -61 -121 -62
-710 -1 -473 1 -544 16 -592 63 -208 221 -336 455 -365 l46 -6 6 -109 c9 -151
42 -211 129 -240 31 -9 48 -9 93 5 48 14 78 35 226 168 94 84 181 158 193 164
14 9 71 13 171 13 89 0 177 6 216 14 134 29 244 105 322 224 84 127 81 100 85
691 3 456 1 534 -13 597 -42 190 -167 328 -355 395 -64 23 -70 23 -585 26
-406 1 -533 -1 -580 -11z m1070 -228 c102 -20 198 -106 227 -201 10 -32 13
-166 13 -547 l0 -505 -24 -53 c-28 -61 -101 -132 -157 -151 -25 -9 -115 -16
-244 -20 -147 -4 -212 -10 -230 -20 -14 -8 -61 -48 -105 -91 -100 -95 -230
-210 -239 -210 -3 0 -6 50 -6 110 0 122 -13 170 -52 191 -12 7 -73 16 -134 20
-165 10 -236 47 -292 154 l-27 50 0 530 0 530 30 59 c41 82 116 139 205 157
63 12 971 10 1035 -3z"/>
<path d="M2679 6019 c-22 -22 -21 -45 6 -124 8 -22 30 -92 49 -155 73 -242
178 -574 188 -596 13 -27 39 -38 68 -29 18 6 30 27 105 188 10 21 20 35 24 32
3 -3 54 -53 113 -112 59 -59 110 -104 114 -101 3 4 -7 18 -22 32 -16 14 -24
26 -18 26 17 0 57 -47 49 -59 -11 -18 23 -24 58 -10 43 17 77 55 77 85 0 33
-20 61 -111 157 -43 45 -79 87 -79 93 0 6 28 23 63 38 34 15 84 37 110 49 62
27 86 67 44 73 -16 2 -85 44 -73 44 5 0 24 -9 42 -21 19 -11 34 -17 34 -12 0
10 -16 20 -111 71 -357 190 -675 352 -692 352 -10 0 -26 -9 -38 -21z m103 -32
c9 -17 7 -18 -24 -12 -41 9 -46 14 -28 25 12 8 11 10 -5 10 -16 0 -21 -7 -23
-32 -2 -18 -5 -34 -9 -37 -3 -4 -3 9 -1 27 4 27 2 32 -11 27 -11 -4 -10 0 4
13 17 15 25 17 53 8 18 -5 38 -18 44 -29z m-65 -39 c-3 -8 -6 -5 -6 6 -1 11 2
17 5 13 3 -3 4 -12 1 -19z m128 12 c3 -5 2 -10 -4 -10 -5 0 -13 5 -16 10 -3 6
-2 10 4 10 5 0 13 -4 16 -10z m54 -19 c11 -7 9 -10 -8 -16 -13 -4 -25 -4 -28
-1 -4 3 2 6 13 7 18 0 18 1 -1 9 -13 6 -15 9 -5 9 8 0 21 -3 29 -8z m-190 -38
c0 -25 -1 -25 -8 -8 -5 11 -7 23 -4 28 8 14 13 7 12 -20z m331 -38 c25 -13 41
-24 37 -25 -5 0 -17 5 -28 10 -15 8 -19 7 -19 -4 0 -10 -6 -13 -15 -10 -11 5
-13 10 -5 19 8 10 4 16 -17 23 -15 6 -21 11 -13 11 8 0 35 -11 60 -24z m-55
-5 c-3 -5 -12 -10 -18 -10 -7 0 -6 4 3 10 19 12 23 12 15 0z m-188 -42 c-3 -8
-6 -5 -6 6 -1 11 2 17 5 13 3 -3 4 -12 1 -19z m257 7 c3 -8 1 -15 -4 -15 -6 0
-10 7 -10 15 0 8 2 15 4 15 2 0 6 -7 10 -15z m-305 -38 c0 -21 -1 -21 -9 -2
-12 28 -12 37 0 30 6 -3 10 -16 9 -28z m356 23 c3 -5 -1 -10 -9 -10 -8 0 -18
5 -21 10 -3 6 1 10 9 10 8 0 18 -4 21 -10z m91 -26 c18 -14 18 -14 -6 -3 -31
14 -36 19 -24 19 6 0 19 -7 30 -16z m-64 -1 c-6 -2 -10 -9 -6 -14 3 -5 0 -9
-5 -9 -12 0 -14 13 -4 23 3 4 11 7 17 6 6 0 5 -3 -2 -6z m-52 -13 c0 -5 -7
-10 -16 -10 -8 0 -12 5 -9 10 3 6 10 10 16 10 5 0 9 -4 9 -10z m180 -30 c0
-17 -15 -11 -28 11 -12 19 -11 19 8 9 11 -6 20 -15 20 -20z m-499 3 c0 -16 2
-15 9 2 6 14 7 6 3 -22 -7 -51 2 -57 16 -10 l9 32 -1 -37 c-1 -20 -6 -34 -10
-31 -4 2 -5 -8 -2 -24 5 -23 3 -22 -8 7 -27 68 -35 100 -26 100 5 0 9 -8 10
-17z m549 -25 c0 -6 -6 -5 -15 2 -8 7 -15 14 -15 16 0 2 7 1 15 -2 8 -4 15
-11 15 -16z m-75 -26 c15 -8 16 -11 5 -12 -18 0 -40 19 -40 35 0 7 3 6 8 -1 4
-6 16 -16 27 -22z m89 3 c-10 -8 -30 -14 -44 -14 -22 0 -21 2 10 13 48 18 57
19 34 1z m75 -31 c3 -16 1 -17 -13 -5 -19 16 -21 34 -3 29 6 -3 14 -13 16 -24z
m81 -69 c0 -6 -9 -16 -20 -23 -12 -7 -20 -8 -20 -2 0 5 5 10 10 10 6 0 10 7
10 15 0 10 -8 13 -27 11 -16 -2 -20 -1 -10 1 9 2 17 9 17 14 0 5 9 4 20 -3 11
-7 20 -17 20 -23z m-624 -12 c7 -10 13 -31 12 -48 -1 -29 -1 -29 -11 8 -6 20
-14 37 -19 37 -4 0 -8 5 -8 10 0 15 11 12 26 -7z m664 -3 c0 -5 -5 -10 -11
-10 -5 0 -7 5 -4 10 3 6 8 10 11 10 2 0 4 -4 4 -10z m-30 -17 c0 -5 -11 -13
-25 -20 -29 -13 -33 -6 -7 13 19 15 32 18 32 7z m-648 -52 c8 11 9 10 4 -4 -3
-10 -6 -26 -7 -35 -2 -26 -17 29 -17 58 1 21 2 20 5 -4 4 -23 7 -26 15 -15z
m500 -13 c-9 -9 -15 -9 -24 1 -9 10 -9 12 -1 7 6 -3 15 -1 18 5 4 5 10 8 13 4
3 -3 0 -11 -6 -17z m58 18 c0 -2 -9 -6 -20 -9 -11 -3 -18 -1 -14 4 5 9 34 13
34 5z m-100 -46 c-8 -5 -17 -7 -19 -4 -3 3 1 9 9 14 8 5 17 7 19 4 3 -3 -1 -9
-9 -14z m-433 -22 c-3 -8 -6 -5 -6 6 -1 11 2 17 5 13 3 -3 4 -12 1 -19z m4
-54 c-5 -16 -10 -24 -10 -17 -1 6 -4 19 -8 29 -4 12 -3 15 5 10 7 -4 12 -2 12
5 0 7 2 10 5 8 2 -3 0 -18 -4 -35z m439 11 c20 -24 6 -28 -15 -5 -10 11 -13
20 -8 20 6 0 16 -7 23 -15z m-5 -44 c-6 -5 -25 10 -25 20 0 5 6 4 14 -3 8 -7
12 -15 11 -17z m-237 -26 c-3 -3 -9 2 -12 12 -6 14 -5 15 5 6 7 -7 10 -15 7
-18z m125 8 c-4 -10 -9 -11 -19 -2 -18 15 -18 15 5 15 11 0 17 -5 14 -13z
m-123 -56 c-12 -26 -22 -47 -24 -47 -1 0 -3 14 -3 30 0 17 3 26 6 21 4 -6 13
4 20 20 7 17 15 28 17 26 2 -2 -5 -25 -16 -50z m101 36 c13 -16 12 -17 -3 -4
-10 7 -18 15 -18 17 0 8 8 3 21 -13z m224 -3 c4 -6 -1 -7 -11 -3 -14 5 -16 3
-11 -11 4 -10 3 -15 -3 -11 -6 3 -10 13 -10 21 0 16 26 19 35 4z m-479 -48
c-3 -5 1 -30 9 -57 21 -69 17 -80 -5 -15 -18 51 -20 80 -5 80 4 0 4 -4 1 -8z
m26 -19 c-3 -16 -7 -22 -10 -15 -4 13 4 42 11 42 2 0 2 -12 -1 -27z m289 10
c13 -17 13 -17 -6 -3 -11 8 -22 16 -24 17 -2 2 0 3 6 3 6 0 17 -8 24 -17z m45
-2 c0 -16 -3 -17 -14 -9 -12 10 -7 19 13 28 1 0 1 -9 1 -19z m81 -23 c-3 -8
-6 -5 -6 6 -1 11 2 17 5 13 3 -3 4 -12 1 -19z m117 -24 c3 -8 2 -12 -4 -9 -6
3 -10 10 -10 16 0 14 7 11 14 -7z m-479 -31 c-11 -10 -26 -24 -32 -32 -11 -13
-13 -11 -13 9 0 13 3 21 6 17 4 -3 13 0 21 8 8 8 20 15 26 15 6 0 2 -8 -8 -17z
m35 7 c0 -6 -13 -24 -30 -42 -22 -22 -30 -26 -30 -14 0 9 6 16 13 16 8 0 20
11 27 25 14 27 20 31 20 15z m333 3 c-7 -3 -13 -9 -13 -14 0 -15 37 -10 54 7
14 13 16 13 16 1 0 -8 -13 -19 -28 -25 -23 -8 -32 -6 -54 13 l-25 22 31 0 c17
0 25 -2 19 -4z m83 -38 c-22 -19 -44 -35 -50 -34 -6 0 0 8 14 17 13 9 31 25
40 34 8 9 20 17 25 17 6 0 -8 -15 -29 -34z"/>
<path d="M4809 4371 c-24 -24 -29 -38 -29 -76 0 -38 5 -52 29 -76 64 -64 182
-21 183 67 0 51 -14 80 -52 99 -48 25 -97 19 -131 -14z"/>
<path d="M3946 4379 c-159 -23 -289 -132 -353 -295 -24 -61 -27 -83 -26 -184
0 -93 4 -127 21 -174 31 -85 63 -135 119 -187 66 -62 126 -95 203 -113 243
-58 472 66 521 282 l7 32 -98 0 c-92 0 -99 -2 -105 -21 -4 -12 -23 -39 -42
-60 -91 -101 -287 -83 -371 35 -68 95 -82 259 -29 362 47 92 144 154 243 154
77 0 168 -57 195 -121 l11 -29 94 0 c71 0 94 3 94 13 0 42 -46 142 -87 187
-86 96 -239 141 -397 119z"/>
<path d="M4502 3913 l3 -478 86 -3 86 -3 6 221 c3 121 3 337 0 480 l-6 260
-89 0 -88 0 2 -477z"/>
<path d="M5808 4193 c-1 -109 -2 -324 -2 -478 l-1 -280 93 -3 92 -3 0 99 0 98
39 38 39 38 80 -116 c45 -64 86 -125 92 -136 10 -18 21 -20 115 -20 58 0 105
2 105 5 0 3 -17 29 -38 58 -76 103 -222 319 -222 328 0 6 54 72 120 148 66 76
120 143 120 150 0 7 -33 11 -104 11 l-104 0 -119 -138 -118 -139 -3 269 -2
268 -90 0 -90 0 -2 -197z"/>
<path d="M6990 4220 c0 -93 -2 -170 -5 -170 -3 0 -16 9 -28 21 -48 45 -98 63
-177 63 -170 0 -286 -110 -309 -291 -18 -144 21 -267 110 -347 109 -98 301
-103 381 -11 l23 27 5 -39 5 -38 88 -3 87 -3 0 481 0 480 -90 0 -90 0 0 -170z
m-107 -254 c50 -18 71 -38 96 -92 56 -117 1 -264 -108 -294 -114 -30 -208 45
-219 175 -8 102 27 172 102 206 48 22 77 23 129 5z"/>
<path d="M8610 3910 l0 -480 90 0 90 0 0 98 0 98 40 39 c24 23 43 35 48 30 5
-6 48 -67 96 -137 l87 -128 105 0 c84 0 103 3 97 13 -4 7 -63 92 -130 189 -68
97 -123 182 -123 190 1 7 54 75 120 152 66 76 117 143 114 147 -3 5 -50 9
-104 9 l-99 0 -116 -134 c-63 -74 -119 -138 -125 -141 -7 -4 -10 86 -10 264
l0 271 -90 0 -90 0 0 -480z"/>
<path d="M5293 4126 c-91 -29 -157 -88 -200 -181 -25 -54 -28 -70 -28 -170 0
-104 2 -114 32 -176 44 -89 106 -138 208 -165 185 -50 368 43 420 214 6 22 5
22 -83 22 l-90 0 -40 -40 c-37 -38 -43 -40 -98 -40 -110 0 -163 62 -164 190 0
117 59 190 153 190 54 0 105 -24 125 -60 17 -30 17 -30 109 -30 l92 0 -14 47
c-29 96 -102 168 -199 198 -60 18 -166 18 -223 1z"/>
<path d="M8190 4131 c-54 -11 -120 -52 -154 -94 -27 -33 -31 -48 -34 -110 -3
-63 -1 -77 20 -107 36 -53 80 -76 186 -101 53 -12 107 -26 118 -31 45 -21 50
-84 10 -117 -47 -39 -159 -15 -179 39 -11 30 -12 30 -89 30 -42 0 -79 -3 -81
-7 -2 -5 0 -28 5 -52 14 -63 79 -125 154 -147 74 -21 191 -15 254 13 92 41
147 128 137 216 -13 104 -69 153 -222 193 -129 34 -135 37 -135 77 0 49 19 68
73 74 46 5 49 4 87 -36 l40 -42 73 3 c70 3 72 4 69 28 -2 14 -16 45 -30 70
-50 81 -185 126 -302 101z"/>
<path d="M7461 4108 c-73 -28 -141 -97 -172 -174 -19 -48 -23 -78 -23 -159 0
-87 3 -107 26 -156 35 -76 88 -133 156 -166 51 -25 68 -28 157 -28 80 0 109 4
145 21 54 25 104 72 130 125 32 63 30 64 -66 60 -82 -3 -88 -5 -114 -35 -26
-29 -33 -31 -93 -31 -51 0 -72 5 -93 21 -31 23 -59 73 -68 122 l-5 32 234 0
c268 0 253 -6 240 98 -17 134 -86 232 -192 272 -73 27 -188 27 -262 -2z m199
-123 c36 -19 67 -62 71 -100 l4 -30 -144 -3 -144 -3 7 32 c18 92 125 146 206
104z"/>
<path d="M4795 4107 c-3 -6 -4 -161 -3 -342 l3 -330 86 -3 86 -3 6 128 c4 70
7 226 7 346 l0 217 -90 0 c-64 0 -92 -4 -95 -13z"/>
</g>
</svg>
